<svg xmlns="http://www.w3.org/2000/svg" viewBox="0 0 48 48" fill="none">
  <defs>
    <linearGradient id="g" x1="24" y1="4" x2="24" y2="44" gradientUnits="userSpaceOnUse">
      <stop stop-color="#F7E4A8"/><stop offset=".5" stop-color="#D4A94F"/><stop offset="1" stop-color="#8A6524"/>
    </linearGradient>
    <linearGradient id="r" x1="24" y1="6" x2="24" y2="42" gradientUnits="userSpaceOnUse">
      <stop stop-color="#F0566B"/><stop offset="1" stop-color="#8E0F22"/>
    </linearGradient>
  </defs>
  <path fill="url(#g)" stroke="#5B4118" stroke-width="1.1" stroke-linejoin="round" d="M20.6 4h6.8l1 5.2a16 16 0 0 1 4 1.7l4.4-3 4.8 4.8-3 4.4a16 16 0 0 1 1.7 4l5.2 1v6.8l-5.2 1a16 16 0 0 1-1.7 4l3 4.4-4.8 4.8-4.4-3a16 16 0 0 1-4 1.7l-1 5.2h-6.8l-1-5.2a16 16 0 0 1-4-1.7l-4.4 3-4.8-4.8 3-4.4a16 16 0 0 1-1.7-4l-5.2-1v-6.8l5.2-1a16 16 0 0 1 1.7-4l-3-4.4 4.8-4.8 4.4 3a16 16 0 0 1 4-1.7z"/>
  <circle cx="24" cy="24" r="7.5" fill="#0C1014" stroke="#8A6524" stroke-width="1.4"/>
</svg>
